# xmcd
#
# Track frame offsets:
# 150
# 15047
# 27495
# 37698
# 49069
# 60179
# 72406
# 78333
# 88128
# 100290
# 110972
# 127069
# 136667
# 152633
# 175784
# 189580
# 202498
# 215203
# 240746
# 256207
# 270353
# 288524
# 310151
# 326625
# 339068
#
# Disc length: 4644 seconds
#
#
# Revision: 0
# Processed by: cddbd v1.5.1PL0 Copyright (c) Steve Scherf et al.
# Submitted via: FreeRIP 2.931 
#
DISCID=63122219
DTITLE=Gospeltrain - Adventskonzert 2004
DYEAR=2004
DGENRE=Gospel
TTITLE0=Get on Board/Get you ready
TTITLE1=Oh freedom
TTITLE2=Don`t you let nobody turn you round
TTITLE3=Just couldn`t be contended
TTITLE4=Let the church roll on
TTITLE5=Ain`t got time to die
TTITLE6=Joiy to the world
TTITLE7=O come, all ye faithful
TTITLE8=Jesus be a fence
TTITLE9=Let me ride
TTITLE10=Followers of christ
TTITLE11=Akanamanga
TTITLE12=Will the circle be unbroken
TTITLE13=O happy day
TTITLE14=I want Jesus to talk with me
TTITLE15=Mary`s bay child
TTITLE16=Precious Lord
TTITLE17=Sometimes
TTITLE18=Tears in heaven
TTITLE19=Operator
TTITLE20=I will bless the lord
TTITLE21=Get right Church
TTITLE22=Lead me guide me
TTITLE23=Zugabe 1
TTITLE24=Zugabe 2
EXTD=Adventskonzert 2004\nEv. Kirche Müsen
EXTT0=
EXTT1=
EXTT2=
EXTT3=
EXTT4=
EXTT5=
EXTT6=
EXTT7=
EXTT8=
EXTT9=
EXTT10=
EXTT11=
EXTT12=
EXTT13=
EXTT14=
EXTT15=
EXTT16=
EXTT17=
EXTT18=
EXTT19=
EXTT20=
EXTT21=
EXTT22=
EXTT23=
EXTT24=
PLAYORDER=
